# xmcd CD database file
#
# Track frame offsets:
#	150
#	25271
#	43785
#	56624
#	78567
#	97684
#	111868
#	129796
#	149073
#	170970
#	196910
#	217297
#
# Disc length: 3126 seconds
#
# Revision: 0
# Processed by: cddbd v1.5.2PL0 Copyright (c) Steve Scherf et al.
# Submitted via: CDex 1.51
#
DISCID=b00c340c
DTITLE=Chris Botti - Italia
DYEAR=2008
DGENRE=Jazz
TTITLE0=Italia (feat. Andrea Bocelli)
TTITLE1=Estate
TTITLE2=Deborah's Theme (from "Once Upon a Time in America")
TTITLE3=The Very Thought of You (feat. Paula Cole)
TTITLE4=Gabriel's Oboe (from "The Mission")
TTITLE5=I've Grown Accustomed To Her Face (feat. Dean Martin)
TTITLE6=Caruso
TTITLE7=The Way You Look Tonight
TTITLE8=It Never Entered My Mind
TTITLE9=Ave Maria
TTITLE10=Venice
TTITLE11=Nessun Dorma
EXTD=YEAR: 2008
EXTT0=
EXTT1=
EXTT2=
EXTT3=
EXTT4=
EXTT5=
EXTT6=
EXTT7=
EXTT8=
EXTT9=
EXTT10=
EXTT11=
PLAYORDER=
